<svg width="53" height="61" viewBox="0 0 53 61" fill="none" xmlns="http://www.w3.org/1300/svg">
<path opacity="0.7" d="M17.0488 55.1831L15.2441 60.8013H14.1323L12.3276 55.1831H13.2944L14.1538 58.2607C14.1932 58.404 14.3507 59.0091 14.6265 60.0762H14.793C14.8574 59.8577 14.9451 59.5319 15.0562 59.0986C15.1493 58.7262 15.2262 58.4362 15.2871 58.2285L16.1465 55.1831H17.0488ZM20.4648 55.0596C21.2275 55.0596 21.8309 55.355 22.2749 55.9458C22.6724 56.4722 22.8711 57.1525 22.8711 57.9868C22.8711 58.95 22.6169 59.7038 22.1084 60.248C21.6751 60.7135 21.1237 60.9463 20.4541 60.9463C19.6807 60.9463 19.0719 60.6491 18.6279 60.0547C18.2376 59.5319 18.0425 58.8534 18.0425 58.019C18.0425 57.0558 18.2967 56.3021 18.8052 55.7578C19.2384 55.2923 19.7917 55.0596 20.4648 55.0596ZM20.4648 55.7524C19.9564 55.7524 19.5697 55.9727 19.3047 56.4131C19.0719 56.7998 18.9556 57.328 18.9556 57.9976C18.9556 58.7674 19.106 59.3493 19.4067 59.7432C19.6646 60.0833 20.0137 60.2534 20.4541 60.2534C20.959 60.2534 21.3421 60.035 21.6035 59.5981C21.8398 59.2078 21.958 58.6743 21.958 57.9976C21.958 57.2313 21.8076 56.653 21.5068 56.2627C21.249 55.9225 20.9017 55.7524 20.4648 55.7524ZM25.4385 52.5513V60.8013H24.5469V52.5513H25.4385ZM28.6182 53.2388V55.1831H29.9609V55.876H28.6182V59.3403C28.6182 59.9491 28.8778 60.2534 29.397 60.2534C29.6655 60.2534 29.9001 60.2301 30.1006 60.1836L30.0576 60.8765C29.8034 60.9159 29.5133 60.9355 29.1875 60.9355C28.2207 60.9355 27.7373 60.4575 27.7373 59.5015V55.876H26.8242V55.1831H27.7373V53.4321L28.6182 53.2388ZM31.1855 56.5259C31.4935 55.5412 32.2383 55.0488 33.4199 55.0488C34.777 55.0488 35.4556 55.6719 35.4556 56.918V58.9751C35.4556 59.634 35.4914 60.2427 35.563 60.8013H34.752C34.7018 60.5757 34.6606 60.2785 34.6284 59.9097C34.1629 60.5936 33.522 60.9355 32.7056 60.9355C32.1291 60.9355 31.6851 60.7655 31.3735 60.4253C31.1086 60.1353 30.9761 59.7593 30.9761 59.2974C30.9761 58.284 31.592 57.6681 32.8237 57.4497C33.2892 57.3674 33.8765 57.3083 34.5854 57.2725V56.9771C34.5854 56.4972 34.4798 56.1624 34.2686 55.9727C34.0859 55.8044 33.7959 55.7202 33.3984 55.7202C32.6787 55.7202 32.224 56.0765 32.0342 56.7891L31.1855 56.5259ZM34.5854 57.8901C34.0698 57.8973 33.5488 57.9546 33.0225 58.062C32.2383 58.2303 31.8462 58.6278 31.8462 59.2544C31.8462 59.5874 31.9518 59.8434 32.1631 60.0225C32.3529 60.1836 32.6071 60.2642 32.9258 60.2642C33.5846 60.2642 34.1379 59.8936 34.5854 59.1523V57.8901ZM40.123 55.0596L40.0586 55.9297C39.6719 55.9297 39.321 56.0872 39.0059 56.4023C38.7122 56.6888 38.4867 57.0809 38.3291 57.5786V60.8013H37.4375V55.1831H38.2969V56.6118C38.6979 55.577 39.3066 55.0596 40.123 55.0596Z" fill="black"/>
<path d="M0.87868 25.1213C-0.292893 23.9497 -0.292893 22.0503 0.87868 20.8787L19.9706 1.7868C21.1421 0.615224 23.0416 0.615224 24.2132 1.7868C25.3848 2.95837 25.3848 4.85786 24.2132 6.02944L7.24264 23L24.2132 39.9706C25.3848 41.1421 25.3848 43.0416 24.2132 44.2132C23.0416 45.3848 21.1421 45.3848 19.9706 44.2132L0.87868 25.1213ZM53 26H3V20H53V26Z" fill="black" fill-opacity="0.7"/>
</svg>
