<svg width="53" height="65" viewBox="0 0 53 65" fill="none" xmlns="http://www.w3.org/2000/svg">
<path d="M0.878681 25.1213C-0.292892 23.9497 -0.292892 22.0503 0.878681 20.8787L19.9706 1.7868C21.1421 0.615223 23.0416 0.615223 24.2132 1.7868C25.3848 2.95837 25.3848 4.85786 24.2132 6.02944L7.24264 23L24.2132 39.9706C25.3848 41.1421 25.3848 43.0416 24.2132 44.2132C23.0416 45.3848 21.1421 45.3848 19.9706 44.2132L0.878681 25.1213ZM53 26H3V20H53V26Z" fill="black" fill-opacity="0.7"/>
<path d="M21.5161 59.1533C21.5161 60.0592 21.3156 60.779 20.9146 61.3125C20.5135 61.8424 19.9746 62.1074 19.2979 62.1074C18.4886 62.1074 17.8763 61.8066 17.4609 61.2051L17.4341 62H16.8325V53.75H17.4717V57.0317C17.8799 56.3979 18.485 56.0811 19.2871 56.0811C19.9746 56.0811 20.5171 56.3442 20.9146 56.8706C21.3156 57.3934 21.5161 58.1221 21.5161 59.0566V59.1533ZM20.8716 59.0405C20.8716 58.2743 20.723 57.6834 20.4258 57.2681C20.1286 56.8491 19.7096 56.6396 19.1689 56.6396C18.7572 56.6396 18.408 56.7417 18.1216 56.9458C17.8351 57.1463 17.6185 57.4417 17.4717 57.832V60.4531C17.7939 61.1836 18.3633 61.5488 19.1797 61.5488C19.7096 61.5488 20.1232 61.3394 20.4204 60.9204C20.7212 60.5015 20.8716 59.8748 20.8716 59.0405ZM26.6079 62C26.5435 61.8174 26.5023 61.547 26.4844 61.189C26.2588 61.4826 25.9705 61.71 25.6196 61.8711C25.2723 62.0286 24.9035 62.1074 24.5132 62.1074C23.9546 62.1074 23.5016 61.9517 23.1543 61.6401C22.8105 61.3286 22.6387 60.9347 22.6387 60.4585C22.6387 59.8927 22.8732 59.4451 23.3423 59.1157C23.8149 58.7863 24.472 58.6216 25.3135 58.6216H26.479V57.9609C26.479 57.5456 26.3501 57.2197 26.0923 56.9834C25.8381 56.7435 25.4657 56.6235 24.9751 56.6235C24.5275 56.6235 24.1569 56.7381 23.8633 56.9673C23.5697 57.1965 23.4229 57.4722 23.4229 57.7944L22.7783 57.7891C22.7783 57.3271 22.9932 56.9279 23.4229 56.5913C23.8525 56.2511 24.3807 56.0811 25.0073 56.0811C25.6554 56.0811 26.1657 56.244 26.5381 56.5698C26.9141 56.8921 27.1074 57.3433 27.1182 57.9233V60.6733C27.1182 61.2355 27.1772 61.6562 27.2954 61.9355V62H26.6079ZM24.5884 61.5381C25.0181 61.5381 25.4012 61.4342 25.7378 61.2266C26.078 61.0189 26.325 60.7414 26.479 60.394V59.1157H25.3296C24.6886 59.1229 24.1873 59.241 23.8257 59.4702C23.464 59.6958 23.2832 60.0073 23.2832 60.4048C23.2832 60.7306 23.4032 61.001 23.6431 61.2158C23.8866 61.4307 24.2017 61.5381 24.5884 61.5381ZM30.9854 61.5649C31.4329 61.5649 31.8071 61.4396 32.1079 61.189C32.4123 60.9347 32.577 60.6071 32.6021 60.2061H33.2197C33.2018 60.5605 33.0908 60.8846 32.8867 61.1782C32.6826 61.4683 32.4105 61.6956 32.0703 61.8604C31.7337 62.0251 31.3721 62.1074 30.9854 62.1074C30.2227 62.1074 29.6175 61.8424 29.1699 61.3125C28.7259 60.7826 28.5039 60.07 28.5039 59.1748V58.9814C28.5039 58.4085 28.6042 57.9019 28.8047 57.4614C29.0052 57.021 29.2917 56.6808 29.6641 56.4409C30.04 56.201 30.4787 56.0811 30.98 56.0811C31.6174 56.0811 32.1419 56.2708 32.5537 56.6504C32.9691 57.0299 33.1911 57.5295 33.2197 58.1489H32.6021C32.5734 57.6942 32.4087 57.3271 32.1079 57.0479C31.8107 56.7686 31.4347 56.6289 30.98 56.6289C30.3999 56.6289 29.9487 56.8384 29.6265 57.2573C29.3078 57.6763 29.1484 58.2635 29.1484 59.019V59.207C29.1484 59.9482 29.3078 60.5265 29.6265 60.9419C29.9487 61.3573 30.4017 61.5649 30.9854 61.5649ZM35.8892 59.0728L35.1533 59.7817V62H34.5088V53.75H35.1533V59.0298L35.7603 58.3745L37.9839 56.1885H38.7949L36.3296 58.6377L39.0098 62H38.2417L35.8892 59.0728Z" fill="black" fill-opacity="0.7"/>
</svg>
